<svg xmlns="http://www.w3.org/2000/svg" version="1.1" xmlns:xlink="http://www.w3.org/1999/xlink" xmlns:svgjs="http://svgjs.dev/svgjs" width="2000" height="353" viewBox="0 0 2000 353"><g transform="matrix(1,0,0,1,-1.2121212121213603,-1.011125462482937)"><svg viewBox="0 0 396 70" data-background-color="#ffffff" preserveAspectRatio="xMidYMid meet" height="353" width="2000" xmlns="http://www.w3.org/2000/svg" xmlns:xlink="http://www.w3.org/1999/xlink"><g id="tight-bounds" transform="matrix(1,0,0,1,0.24000000000003752,0.20050646564817498)"><svg viewBox="0 0 395.5199999999999 69.59874672229476" height="69.59874672229476" width="395.5199999999999"><g><svg viewBox="0 0 512.1092461419908 90.11468880557678" height="69.59874672229476" width="395.5199999999999"><g transform="matrix(1,0,0,1,116.5892461419908,17.021291038179093)"><svg viewBox="0 0 395.52 56.07210672921859" height="56.07210672921859" width="395.52"><g id="textblocktransform"><svg viewBox="0 0 395.52 56.07210672921859" height="56.07210672921859" width="395.52" id="textblock"><g><svg viewBox="0 0 395.52 56.07210672921859" height="56.07210672921859" width="395.52"><g transform="matrix(1,0,0,1,0,0)"><svg width="395.52" viewBox="4.5 -36.75 341.02 48.35" height="56.07210672921859" data-palette-color="#5333ff"><path d="M9.25 0L4.5 0 4.5-35 9.25-35 9.25 0ZM22.25 0L17.75 0 17.75-26 22.1-26 22.1-21.65Q23.5-23.75 25.65-25.18 27.8-26.6 30.55-26.6L30.55-26.6Q33.65-26.6 35.62-25.1 37.6-23.6 38.4-21.1L38.4-21.1Q39.95-23.4 42.07-25 44.2-26.6 47.35-26.6L47.35-26.6Q51.6-26.6 53.67-23.93 55.75-21.25 55.75-16.95L55.75-16.95 55.75 0 51.25 0 51.25-16.6Q51.25-19.3 50-20.98 48.75-22.65 46.55-22.65L46.55-22.65Q44.3-22.65 42.37-20.98 40.45-19.3 39-17.05L39-17.05 39 0 34.5 0 34.5-16.6Q34.5-19.3 33.25-20.98 32-22.65 29.8-22.65L29.8-22.65Q27.6-22.65 25.65-21.03 23.7-19.4 22.25-17.2L22.25-17.2 22.25 0ZM73.45 0.6L73.45 0.6Q70.2 0.6 67.55-1.05 64.9-2.7 63.32-5.73 61.75-8.75 61.75-12.85L61.75-12.85Q61.75-16.75 63.32-19.85 64.9-22.95 67.67-24.78 70.45-26.6 74.05-26.6L74.05-26.6Q76.3-26.6 78.12-25.83 79.95-25.05 81.3-23.9L81.3-23.9 81.3-26 85.4-26 85.4-6.3Q85.4-4.4 86.32-3.83 87.25-3.25 88.34-3.25L88.34-3.25 87.4 0.25Q82.59 0.25 81.59-3.65L81.59-3.65Q80.45-2.05 78.47-0.73 76.5 0.6 73.45 0.6ZM74.45-3.4L74.45-3.4Q76.34-3.4 78.05-4.33 79.75-5.25 80.9-6.65L80.9-6.65 80.9-20.6Q79.55-21.55 77.92-22.13 76.3-22.7 74.5-22.7L74.5-22.7Q72.09-22.7 70.27-21.48 68.45-20.25 67.4-18.07 66.34-15.9 66.34-13L66.34-13Q66.34-10.2 67.4-8.03 68.45-5.85 70.3-4.63 72.15-3.4 74.45-3.4ZM103.39 11.6L103.39 11.6Q101.09 11.6 98.92 11.05 96.74 10.5 95.04 9.4L95.04 9.4 96.69 5.5Q97.89 6.45 99.49 7.08 101.09 7.7 103.39 7.7L103.39 7.7Q106.94 7.7 108.97 5.83 110.99 3.95 110.99-0.15L110.99-0.15 110.99-3.35Q109.99-2.15 108.12-1.07 106.24 0 103.64 0L103.64 0Q100.69 0 98.04-1.53 95.39-3.05 93.74-6 92.09-8.95 92.09-13.1L92.09-13.1Q92.09-17 93.72-20.05 95.34-23.1 98.09-24.85 100.84-26.6 104.14-26.6L104.14-26.6Q106.34-26.6 108.14-25.85 109.94-25.1 111.24-24L111.24-24 111.24-26 115.34-26 115.34-0.6Q115.34 3.7 113.84 6.4 112.34 9.1 109.67 10.35 106.99 11.6 103.39 11.6ZM104.64-4L104.64-4Q106.64-4 108.24-4.9 109.84-5.8 110.84-7L110.84-7 110.84-20.6Q109.74-21.4 108.19-22.05 106.64-22.7 104.59-22.7L104.59-22.7Q102.54-22.7 100.74-21.6 98.94-20.5 97.82-18.43 96.69-16.35 96.69-13.35L96.69-13.35Q96.69-10.5 97.82-8.4 98.94-6.3 100.74-5.15 102.54-4 104.64-4ZM133.49 0.6L133.49 0.6Q127.89 0.6 124.62-2.98 121.34-6.55 121.34-13L121.34-13Q121.34-16.9 122.81-19.98 124.29-23.05 126.94-24.83 129.59-26.6 133.09-26.6L133.09-26.6Q136.84-26.6 139.31-24.98 141.79-23.35 143.04-20.6 144.29-17.85 144.29-14.55L144.29-14.55Q144.29-12.8 144.14-11.15L144.14-11.15 125.94-11.15Q126.39-7.5 128.49-5.45 130.59-3.4 134.04-3.4L134.04-3.4Q136.29-3.4 138.09-3.88 139.89-4.35 141.54-5.1L141.54-5.1 142.59-1.25Q140.79-0.45 138.54 0.08 136.29 0.6 133.49 0.6ZM125.89-14.8L125.89-14.8 140.14-14.8Q140.14-18.6 138.24-20.65 136.34-22.7 132.99-22.7L132.99-22.7Q130.09-22.7 128.19-20.68 126.29-18.65 125.89-14.8ZM162.74 0.6L162.74 0.6Q158.69 0.6 155.54-1.5 152.39-3.6 150.59-7.48 148.79-11.35 148.79-16.6L148.79-16.6Q148.79-22.2 150.69-26.48 152.59-30.75 156.16-33.18 159.74-35.6 164.79-35.6L164.79-35.6Q168.04-35.6 170.59-34.8 173.14-34 175.39-32.75L175.39-32.75 173.64-28.8Q171.54-29.95 169.36-30.7 167.19-31.45 164.54-31.45L164.54-31.45Q161.39-31.45 158.94-29.78 156.49-28.1 155.06-24.85 153.64-21.6 153.64-16.9L153.64-16.9Q153.64-12.7 154.94-9.73 156.24-6.75 158.54-5.15 160.84-3.55 163.84-3.55L163.84-3.55Q166.64-3.55 168.81-4.73 170.99-5.9 172.24-7.15L172.24-7.15 172.24-14.8 164.99-14.8 164.99-18.55 176.74-18.55 176.74 0 172.54 0 172.54-3.5Q170.79-1.95 168.29-0.68 165.79 0.6 162.74 0.6ZM194.39 0.6L194.39 0.6Q188.79 0.6 185.51-2.98 182.24-6.55 182.24-13L182.24-13Q182.24-16.9 183.71-19.98 185.19-23.05 187.84-24.83 190.49-26.6 193.99-26.6L193.99-26.6Q197.74-26.6 200.21-24.98 202.69-23.35 203.94-20.6 205.19-17.85 205.19-14.55L205.19-14.55Q205.19-12.8 205.04-11.15L205.04-11.15 186.84-11.15Q187.29-7.5 189.39-5.45 191.49-3.4 194.94-3.4L194.94-3.4Q197.19-3.4 198.99-3.88 200.79-4.35 202.44-5.1L202.44-5.1 203.49-1.25Q201.69-0.45 199.44 0.08 197.19 0.6 194.39 0.6ZM186.79-14.8L186.79-14.8 201.04-14.8Q201.04-18.6 199.14-20.65 197.24-22.7 193.89-22.7L193.89-22.7Q190.99-22.7 189.09-20.68 187.19-18.65 186.79-14.8ZM215.68 0L211.18 0 211.18-26 215.53-26 215.53-21.65Q216.93-23.75 219.11-25.18 221.28-26.6 224.28-26.6L224.28-26.6Q228.68-26.6 230.86-23.95 233.03-21.3 233.03-16.95L233.03-16.95 233.03 0 228.53 0 228.53-16.45Q228.53-19.25 227.21-20.95 225.88-22.65 223.53-22.65L223.53-22.65Q221.23-22.65 219.18-21.03 217.13-19.4 215.68-17.2L215.68-17.2 215.68 0ZM245.28 0L240.78 0 240.78-26 245.28-26 245.28 0ZM243.03-30.45L243.03-30.45Q241.73-30.45 240.81-31.4 239.88-32.35 239.88-33.6L239.88-33.6Q239.88-35.05 240.73-35.9 241.58-36.75 243.03-36.75L243.03-36.75Q244.33-36.75 245.25-35.83 246.18-34.9 246.18-33.6L246.18-33.6Q246.18-32.2 245.33-31.33 244.48-30.45 243.03-30.45ZM261.78 0.6L261.78 0.6Q259.53 0.6 257.53-0.35 255.53-1.3 254.28-3.43 253.03-5.55 253.03-9.1L253.03-9.1 253.03-26 257.53-26 257.53-9.7Q257.53-6.65 258.83-5.03 260.13-3.4 262.63-3.4L262.63-3.4Q264.68-3.4 266.6-4.23 268.53-5.05 270.03-6.45L270.03-6.45 270.03-26 274.53-26 274.53-6.75Q274.53-4.6 275.45-3.93 276.38-3.25 277.48-3.25L277.48-3.25 276.53 0.25Q271.88 0.25 270.78-3.45L270.78-3.45Q269.03-1.65 266.73-0.53 264.43 0.6 261.78 0.6ZM290.48 0.6L290.48 0.6Q287.53 0.6 285.15-0.15 282.78-0.9 281.23-2.1L281.23-2.1 283.13-5.85Q284.43-4.75 286.4-4.03 288.38-3.3 290.63-3.3L290.63-3.3Q293.43-3.3 294.85-4.23 296.28-5.15 296.28-6.6L296.28-6.6Q296.28-7.65 295.75-8.45 295.23-9.25 293.83-10.03 292.43-10.8 289.78-11.7L289.78-11.7Q286.13-12.95 284.3-14.68 282.48-16.4 282.48-19.45L282.48-19.45Q282.48-22.45 285.1-24.53 287.73-26.6 292.38-26.6L292.38-26.6Q294.88-26.6 296.83-26.08 298.78-25.55 300.33-24.75L300.33-24.75 299.08-21.05Q297.73-21.85 296-22.35 294.28-22.85 292.18-22.85L292.18-22.85Q289.58-22.85 288.23-21.8 286.88-20.75 286.88-19.5L286.88-19.5Q286.88-18.3 287.93-17.45 288.98-16.6 292.03-15.6L292.03-15.6Q296.98-13.95 298.93-11.95 300.88-9.95 300.88-6.95L300.88-6.95Q300.88-3.45 298.05-1.43 295.23 0.6 290.48 0.6ZM335.77-1.25L331.42 0.5 327.52-9.5 311.32-9.5 307.42 0.4 303.37-1.25 317.07-35 322.27-35 335.77-1.25ZM319.42-30.3L312.82-13.5 325.97-13.5 319.42-30.3ZM345.52 0L340.77 0 340.77-35 345.52-35 345.52 0Z" opacity="1" transform="matrix(1,0,0,1,0,0)" fill="#5333ff" class="wordmark-text-0" data-fill-palette-color="primary" id="text-0"></path></svg></g></svg></g></svg></g></svg></g><g><svg viewBox="0 0 90.11468880557678 90.11468880557678" height="90.11468880557678" width="90.11468880557678"><g><svg></svg></g><g id="icon-0"><svg viewBox="0 0 90.11468880557678 90.11468880557678" height="90.11468880557678" width="90.11468880557678"><g><path d="M0 45.057c0-24.884 20.173-45.057 45.057-45.057 24.884 0 45.057 20.173 45.058 45.057 0 24.884-20.173 45.057-45.058 45.058-24.884 0-45.057-20.173-45.057-45.058zM45.057 85.058c22.092 0 40.001-17.909 40.001-40.001 0-22.092-17.909-40.001-40.001-40-22.092 0-40.001 17.909-40 40 0 22.092 17.909 40.001 40 40.001z" data-fill-palette-color="accent" fill="#5333ff" stroke="transparent"></path><ellipse rx="44.60677095876051" ry="44.60677095876051" cx="45.05734440278839" cy="45.05734440278839" fill="#5333ff" stroke="transparent" stroke-width="0" fill-opacity="1" data-fill-palette-color="accent"></ellipse></g><g transform="matrix(1,0,0,1,20.735280449338127,22.735523377001087)"><svg viewBox="0 0 48.64412790690052 44.6436420515746" height="44.6436420515746" width="48.64412790690052"><g><svg xmlns="http://www.w3.org/2000/svg" xmlns:xlink="http://www.w3.org/1999/xlink" version="1.1" x="0" y="0" viewBox="69.5 105.09999999999998 860.9003139762098 790.0999999999999" style="enable-background:new 0 0 1000 1000;" xml:space="preserve" height="44.6436420515746" width="48.64412790690052" class="icon-cg-0" data-fill-palette-color="quaternary" id="cg-0"><g fill="#ffffff" data-fill-palette-color="quaternary"><path d="M605.5 333.8c-36.8-64.1-73.4-128.2-110.9-191.8-3-5-12.3-8.7-18.7-8.9-34-0.7-68.1-0.7-102.1-0.3-9-16.5-26.6-27.7-46.7-27.7-29.3 0-53.1 23.8-53.1 53.1 0 29.3 23.8 53.1 53.1 53.1 19.9 0 37.3-11 46.4-27.3 24.2 0 47.8 0 71.4 0.3 6.4 0.1 15.6 1.2 18.6 5.4 9.9 13.8 17.5 29.2 27.9 47.2h-25.2c-55.8 0-111.6-0.2-167.4 0.3-7.1 0.1-17.3 0.9-20.7 5.4-9.7 13.1-16.6 28.2-26.4 45.8 10.5 0 17.3 0 24 0 68.4 0 136.8 1.6 205.1-0.8 30.2-1 50.2 6 61.3 35.3 2.6 6.9 11.2 14.9 18.2 16.1 14.7 2.5 30.1 0.8 45.1 0.8C605.5 336.4 606.1 334.7 605.5 333.8zM346.3 183.9c-5.4 4-12.1 6.4-19.3 6.4-17.8 0-32.2-14.5-32.2-32.2 0-17.8 14.5-32.2 32.2-32.2 8.1 0 15.5 3 21.1 7.9 6.8 5.9 11.1 14.6 11.1 24.3C359.3 168.6 354.2 178 346.3 183.9z" fill="#ffffff" data-fill-palette-color="quaternary"></path><path d="M681.5 173.5C681.5 173.5 681.5 173.5 681.5 173.5 681.5 173.5 681.5 173.5 681.5 173.5L681.5 173.5z" fill="#ffffff" data-fill-palette-color="quaternary"></path><path d="M689.3 812.4c-0.5 0.9-1 1.7-1.6 2.6-1.6-1.1-3.4-2-5.2-2.8C684.8 812.3 687 812.3 689.3 812.4z" fill="#ffffff" data-fill-palette-color="quaternary"></path><path d="M428.3 794.6c-31.6-60.6-61.9-122-95.6-181.5-14.9-26.3-17.9-47.3 2.9-70.6 4.9-5.5 8-16.9 5.8-23.5-4.6-14.2-13.2-27-20.2-40.3-2.9 1.3-4.6 1.6-5.2 2.5-39.8 62.2-79.7 124.4-118.7 187.1-3.1 5-2.1 15 0.8 20.7 15.1 30.4 30.8 60.5 46.8 90.5-6.3 8.7-10 19.4-10 31 0 29.3 23.8 53.1 53.1 53.1 29.3 0 53.1-23.8 53.1-53.1 0-28.2-22.1-51.4-50-53h0c-11.4-21.9-22.5-43.2-33.4-64.7-2.9-5.7-6.1-14.4-3.8-19 7.6-15.1 17.8-29 28.9-46.5 5.3 10.2 8.5 16.2 11.7 22.3 25.8 49.5 51.5 99 77.7 148.3 3.3 6.3 8.8 15 14.3 15.8 16.1 2.5 32.7 1.7 52.8 2.2C434.6 806.6 431.5 800.6 428.3 794.6zM304.4 782.6C304.4 782.6 304.5 782.6 304.4 782.6c9.5 5.6 15.9 16 15.9 27.8 0 17.8-14.5 32.2-32.2 32.2s-32.2-14.5-32.2-32.2c0-3.3 0.5-6.4 1.4-9.4 4-13.2 16.3-22.8 30.8-22.8C294.1 778.2 299.7 779.8 304.4 782.6z" fill="#ffffff" data-fill-palette-color="quaternary"></path><path d="M877.4 470.3c-29.3 0-53.1 23.8-53.1 53.1 0 11.3 3.5 21.8 9.6 30.4-10.4 17.2-20.7 34-31.1 50.7-3.4 5.4-9.2 12.7-14.3 13.1-16.9 1.3-34-0.2-54.8-0.6 5.9-9.8 9.5-15.7 13.1-21.5 28.9-47.7 58-95.4 86.6-143.3 3.6-6.1 8.2-15.3 6.1-20.5-6.2-15.1-15.5-28.8-25.5-46.3-5.5 9-9 14.8-12.4 20.5-35.4 58.5-72.3 116.2-105.7 175.8-14.7 26.3-31.1 39.8-61.9 34.1-7.3-1.3-18.6 1.9-23.2 7.2-9.7 11.3-16.2 25.3-24 38.2 2.6 1.8 3.7 3.2 4.8 3.2 73.8 1.8 147.7 3.7 221.5 4.6 5.8 0.1 13.9-6 17.3-11.4 17-26.7 33.4-53.8 49.6-81h0c28-1.4 50.4-24.6 50.4-53C930.5 494.1 906.7 470.3 877.4 470.3zM895.1 550.3c-5.1 3.4-11.1 5.3-17.7 5.3-14.5 0-26.7-9.6-30.8-22.7-0.9-3-1.4-6.2-1.4-9.5 0-15.7 11.3-28.9 26.3-31.7 0.2-0.3 0.4-0.7 0.7-1.1 0.2 0.3 0.3 0.6 0.5 0.9 1.6-0.2 3.2-0.4 4.8-0.4 17.8 0 32.2 14.5 32.2 32.2C909.6 534.7 903.8 544.6 895.1 550.3z" fill="#ffffff" data-fill-palette-color="quaternary"></path><path d="M682.5 812.2c1.8 0.8 3.6 1.7 5.2 2.8 0.5-0.8 1-1.7 1.6-2.6C687 812.3 684.8 812.3 682.5 812.2z" fill="#ffffff" data-fill-palette-color="quaternary"></path><path d="M728.6 709.3c-68.3-2.2-136.7-6-205-5.8-30.2 0.1-50-7.6-60.1-37.2-2.4-7-10.8-15.3-17.7-16.6-14.6-2.9-30-1.7-45.1-2.2-0.3 3.2-0.9 4.8-0.4 5.8 34.7 65.2 69.3 130.5 104.7 195.3 2.8 5.1 12 9.1 18.4 9.5 32.4 1.7 64.8 2.7 97.2 3.5 7.8 19.6 27 33.6 49.4 33.6 29.3 0 53.1-23.8 53.1-53.1 0-29.3-23.8-53.1-53.1-53.1-17.5 0-33.1 8.5-42.7 21.6-24.2-0.8-47.8-1.6-71.3-2.6-6.4-0.3-15.6-1.7-18.4-6-9.4-14.1-16.6-29.7-26.3-48.1 11.5 0.4 18.3 0.6 25.2 0.8 55.8 1.8 111.6 3.7 167.4 5.1 7.1 0.2 17.4-0.3 20.8-4.7 10.1-12.8 17.5-27.7 27.9-44.9C742.1 709.8 735.3 709.6 728.6 709.3zM659.7 811.5c3.3-1.1 6.8-1.8 10.5-1.8 4.4 0 8.5 0.9 12.4 2.5l0 0h0c2.3 0.1 4.5 0.1 6.8 0.2-0.5 0.9-1 1.7-1.6 2.6 8.8 5.8 14.6 15.7 14.6 27 0 17.8-14.5 32.2-32.2 32.2-10.2 0-19.3-4.8-25.2-12.2-4.4-5.5-7-12.4-7-20C637.9 827.8 647 815.8 659.7 811.5z" fill="#ffffff" data-fill-palette-color="quaternary"></path><path d="M424.8 323.3c-73.7-4.1-147.5-8.4-221.3-11.6-5.8-0.3-14 5.5-17.7 10.9-19.3 28.4-38 57.2-56.4 86.1-2.2-0.3-4.5-0.4-6.8-0.4-29.3 0-53.1 23.8-53.1 53.1 0 29.3 23.8 53.1 53.1 53.1s53.1-23.8 53.1-53.1c0-8-1.8-15.6-5-22.4 13.9-21.3 27.4-42 41-62.5 3.5-5.3 9.6-12.4 14.7-12.7 16.9-0.8 34 1.2 54.7 2.4-6.3 9.6-10 15.4-13.7 21.1-30.4 46.8-61 93.5-91.1 140.5-3.8 6-8.7 15-6.8 20.3 5.7 15.3 14.6 29.3 24 47.1 5.7-8.8 9.4-14.5 13.1-20.1 37.3-57.3 76-113.8 111.2-172.3 15.6-25.9 32.4-38.8 63-32.1 7.2 1.6 18.6-1.3 23.4-6.5 10.1-11 17-24.8 25.2-37.4C426.9 324.7 425.9 323.4 424.8 323.3zM154.8 463.5c-1.1 16.7-15.1 30-32.1 30-17.8 0-32.2-14.5-32.2-32.2 0-15.8 11.5-29 26.6-31.7 1.8-0.3 3.7-0.5 5.6-0.5 17.8 0 32.2 14.5 32.2 32.2C154.8 462 154.8 462.8 154.8 463.5z" fill="#ffffff" data-fill-palette-color="quaternary"></path><path d="M681.5 173.5C681.5 173.5 681.5 173.5 681.5 173.5 681.5 173.5 681.5 173.5 681.5 173.5L681.5 173.5z" fill="#ffffff" data-fill-palette-color="quaternary"></path><path d="M806.4 291.6c-15.7-29.3-32.1-58.3-48.7-87.2 5.7-8.5 9.1-18.7 9.1-29.7 0-29.3-23.8-53.1-53.1-53.1-29.3 0-53.1 23.8-53.1 53.1 0 28.7 23 52.2 51.5 53.1 11.8 21 23.3 41.4 34.5 61.9 3.1 5.6 6.6 14.2 4.4 18.9-7.1 15.4-16.8 29.6-27.4 47.4-5.6-10-9-16-12.4-21.9-27.4-48.6-54.6-97.3-82.4-145.8-3.5-6.2-9.3-14.7-14.8-15.4-16.2-2-32.8-0.6-52.9-0.5 5.2 9.2 8.5 15 11.8 20.9 33.6 59.6 65.7 120 101.3 178.3 15.7 25.8 19.4 46.7-0.7 70.7-4.7 5.7-7.5 17.1-5.1 23.7 5.1 14 14.1 26.6 21.5 39.7 2.9-1.4 4.6-1.7 5.1-2.7 37.8-63.5 75.7-126.9 112.7-190.8C810.8 307.3 809.5 297.3 806.4 291.6zM744.9 183c-3.6 13.8-16.2 24-31.2 24-5.6 0-11-1.5-15.6-4-9.9-5.5-16.6-16.1-16.6-28.2 0-0.4 0-0.8 0-1.2 0 0 0 0 0 0h0c0.7-17.2 14.9-31 32.2-31 17.8 0 32.2 14.5 32.2 32.2C746 177.6 745.6 180.3 744.9 183z" fill="#ffffff" data-fill-palette-color="quaternary"></path></g></svg></g></svg></g></svg></g></svg></g></svg></g><defs></defs></svg><rect width="395.5199999999999" height="69.59874672229476" fill="none" stroke="none" visibility="hidden"></rect></g></svg></g></svg>