<svg xmlns="http://www.w3.org/2000/svg" version="1.1" xmlns:xlink="http://www.w3.org/1999/xlink" xmlns:svgjs="http://svgjs.dev/svgjs" width="128" height="128" viewBox="0 0 128 128"><g transform="matrix(0.8046875,0,0,0.8046875,12.760752631578946,16.323095437098488)"><svg viewBox="0 0 95 88" data-background-color="#ffffff" preserveAspectRatio="xMidYMid meet" height="118" width="128" xmlns="http://www.w3.org/2000/svg" xmlns:xlink="http://www.w3.org/1999/xlink"><g id="tight-bounds" transform="matrix(1,0,0,1,-0.24049999999999727,0.18567163045274526)"><svg viewBox="0 0 95.481 87.62865673909452" height="87.62865673909452" width="95.481"><g><svg viewBox="0 0 95.481 87.62865673909452" height="87.62865673909452" width="95.481"><g><svg viewBox="0 0 95.481 87.62865673909452" height="87.62865673909452" width="95.481"><g id="textblocktransform"><svg viewBox="0 0 95.481 87.62865673909452" height="87.62865673909452" width="95.481" id="textblock"><g><svg viewBox="0 0 95.481 87.62865673909452" height="87.62865673909452" width="95.481"><g><svg viewBox="0 0 95.481 87.62865673909452" height="87.62865673909452" width="95.481"><g><svg xmlns="http://www.w3.org/2000/svg" xmlns:xlink="http://www.w3.org/1999/xlink" version="1.1" x="0" y="0" viewBox="69.5 105.09999999999998 860.9003139762098 790.0999999999999" style="enable-background:new 0 0 1000 1000;" xml:space="preserve" height="87.62865673909452" width="95.481" class="icon-icon-0" data-fill-palette-color="accent" id="icon-0"><g fill="#5333ff" data-fill-palette-color="accent"><path d="M605.5 333.8c-36.8-64.1-73.4-128.2-110.9-191.8-3-5-12.3-8.7-18.7-8.9-34-0.7-68.1-0.7-102.1-0.3-9-16.5-26.6-27.7-46.7-27.7-29.3 0-53.1 23.8-53.1 53.1 0 29.3 23.8 53.1 53.1 53.1 19.9 0 37.3-11 46.4-27.3 24.2 0 47.8 0 71.4 0.3 6.4 0.1 15.6 1.2 18.6 5.4 9.9 13.8 17.5 29.2 27.9 47.2h-25.2c-55.8 0-111.6-0.2-167.4 0.3-7.1 0.1-17.3 0.9-20.7 5.4-9.7 13.1-16.6 28.2-26.4 45.8 10.5 0 17.3 0 24 0 68.4 0 136.8 1.6 205.1-0.8 30.2-1 50.2 6 61.3 35.3 2.6 6.9 11.2 14.9 18.2 16.1 14.7 2.5 30.1 0.8 45.1 0.8C605.5 336.4 606.1 334.7 605.5 333.8zM346.3 183.9c-5.4 4-12.1 6.4-19.3 6.4-17.8 0-32.2-14.5-32.2-32.2 0-17.8 14.5-32.2 32.2-32.2 8.1 0 15.5 3 21.1 7.9 6.8 5.9 11.1 14.6 11.1 24.3C359.3 168.6 354.2 178 346.3 183.9z" fill="#5333ff" data-fill-palette-color="accent"></path><path d="M681.5 173.5C681.5 173.5 681.5 173.5 681.5 173.5 681.5 173.5 681.5 173.5 681.5 173.5L681.5 173.5z" fill="#5333ff" data-fill-palette-color="accent"></path><path d="M689.3 812.4c-0.5 0.9-1 1.7-1.6 2.6-1.6-1.1-3.4-2-5.2-2.8C684.8 812.3 687 812.3 689.3 812.4z" fill="#5333ff" data-fill-palette-color="accent"></path><path d="M428.3 794.6c-31.6-60.6-61.9-122-95.6-181.5-14.9-26.3-17.9-47.3 2.9-70.6 4.9-5.5 8-16.9 5.8-23.5-4.6-14.2-13.2-27-20.2-40.3-2.9 1.3-4.6 1.6-5.2 2.5-39.8 62.2-79.7 124.4-118.7 187.1-3.1 5-2.1 15 0.8 20.7 15.1 30.4 30.8 60.5 46.8 90.5-6.3 8.7-10 19.4-10 31 0 29.3 23.8 53.1 53.1 53.1 29.3 0 53.1-23.8 53.1-53.1 0-28.2-22.1-51.4-50-53h0c-11.4-21.9-22.5-43.2-33.4-64.7-2.9-5.7-6.1-14.4-3.8-19 7.6-15.1 17.8-29 28.9-46.5 5.3 10.2 8.5 16.2 11.7 22.3 25.8 49.5 51.5 99 77.7 148.3 3.3 6.3 8.8 15 14.3 15.8 16.1 2.5 32.7 1.7 52.8 2.2C434.6 806.6 431.5 800.6 428.3 794.6zM304.4 782.6C304.4 782.6 304.5 782.6 304.4 782.6c9.5 5.6 15.9 16 15.9 27.8 0 17.8-14.5 32.2-32.2 32.2s-32.2-14.5-32.2-32.2c0-3.3 0.5-6.4 1.4-9.4 4-13.2 16.3-22.8 30.8-22.8C294.1 778.2 299.7 779.8 304.4 782.6z" fill="#5333ff" data-fill-palette-color="accent"></path><path d="M877.4 470.3c-29.3 0-53.1 23.8-53.1 53.1 0 11.3 3.5 21.8 9.6 30.4-10.4 17.2-20.7 34-31.1 50.7-3.4 5.4-9.2 12.7-14.3 13.1-16.9 1.3-34-0.2-54.8-0.6 5.9-9.8 9.5-15.7 13.1-21.5 28.9-47.7 58-95.4 86.6-143.3 3.6-6.1 8.2-15.3 6.1-20.5-6.2-15.1-15.5-28.8-25.5-46.3-5.5 9-9 14.8-12.4 20.5-35.4 58.5-72.3 116.2-105.7 175.8-14.7 26.3-31.1 39.8-61.9 34.1-7.3-1.3-18.6 1.9-23.2 7.2-9.7 11.3-16.2 25.3-24 38.2 2.6 1.8 3.7 3.2 4.8 3.2 73.8 1.8 147.7 3.7 221.5 4.6 5.8 0.1 13.9-6 17.3-11.4 17-26.7 33.4-53.8 49.6-81h0c28-1.4 50.4-24.6 50.4-53C930.5 494.1 906.7 470.3 877.4 470.3zM895.1 550.3c-5.1 3.4-11.1 5.3-17.7 5.3-14.5 0-26.7-9.6-30.8-22.7-0.9-3-1.4-6.2-1.4-9.5 0-15.7 11.3-28.9 26.3-31.7 0.2-0.3 0.4-0.7 0.7-1.1 0.2 0.3 0.3 0.6 0.5 0.9 1.6-0.2 3.2-0.4 4.8-0.4 17.8 0 32.2 14.5 32.2 32.2C909.6 534.7 903.8 544.6 895.1 550.3z" fill="#5333ff" data-fill-palette-color="accent"></path><path d="M682.5 812.2c1.8 0.8 3.6 1.7 5.2 2.8 0.5-0.8 1-1.7 1.6-2.6C687 812.3 684.8 812.3 682.5 812.2z" fill="#5333ff" data-fill-palette-color="accent"></path><path d="M728.6 709.3c-68.3-2.2-136.7-6-205-5.8-30.2 0.1-50-7.6-60.1-37.2-2.4-7-10.8-15.3-17.7-16.6-14.6-2.9-30-1.7-45.1-2.2-0.3 3.2-0.9 4.8-0.4 5.8 34.7 65.2 69.3 130.5 104.7 195.3 2.8 5.1 12 9.1 18.4 9.5 32.4 1.7 64.8 2.7 97.2 3.5 7.8 19.6 27 33.6 49.4 33.6 29.3 0 53.1-23.8 53.1-53.1 0-29.3-23.8-53.1-53.1-53.1-17.5 0-33.1 8.5-42.7 21.6-24.2-0.8-47.8-1.6-71.3-2.6-6.4-0.3-15.6-1.7-18.4-6-9.4-14.1-16.6-29.7-26.3-48.1 11.5 0.4 18.3 0.6 25.2 0.8 55.8 1.8 111.6 3.7 167.4 5.1 7.1 0.2 17.4-0.3 20.8-4.7 10.1-12.8 17.5-27.7 27.9-44.9C742.1 709.8 735.3 709.6 728.6 709.3zM659.7 811.5c3.3-1.1 6.8-1.8 10.5-1.8 4.4 0 8.5 0.9 12.4 2.5l0 0h0c2.3 0.1 4.5 0.1 6.8 0.2-0.5 0.9-1 1.7-1.6 2.6 8.8 5.8 14.6 15.7 14.6 27 0 17.8-14.5 32.2-32.2 32.2-10.2 0-19.3-4.8-25.2-12.2-4.4-5.5-7-12.4-7-20C637.9 827.8 647 815.8 659.7 811.5z" fill="#5333ff" data-fill-palette-color="accent"></path><path d="M424.8 323.3c-73.7-4.1-147.5-8.4-221.3-11.6-5.8-0.3-14 5.5-17.7 10.9-19.3 28.4-38 57.2-56.4 86.1-2.2-0.3-4.5-0.4-6.8-0.4-29.3 0-53.1 23.8-53.1 53.1 0 29.3 23.8 53.1 53.1 53.1s53.1-23.8 53.1-53.1c0-8-1.8-15.6-5-22.4 13.9-21.3 27.4-42 41-62.5 3.5-5.3 9.6-12.4 14.7-12.7 16.9-0.8 34 1.2 54.7 2.4-6.3 9.6-10 15.4-13.7 21.1-30.4 46.8-61 93.5-91.1 140.5-3.8 6-8.7 15-6.8 20.3 5.7 15.3 14.6 29.3 24 47.1 5.7-8.8 9.4-14.5 13.1-20.1 37.3-57.3 76-113.8 111.2-172.3 15.6-25.9 32.4-38.8 63-32.1 7.2 1.6 18.6-1.3 23.4-6.5 10.1-11 17-24.8 25.2-37.4C426.9 324.7 425.9 323.4 424.8 323.3zM154.8 463.5c-1.1 16.7-15.1 30-32.1 30-17.8 0-32.2-14.5-32.2-32.2 0-15.8 11.5-29 26.6-31.7 1.8-0.3 3.7-0.5 5.6-0.5 17.8 0 32.2 14.5 32.2 32.2C154.8 462 154.8 462.8 154.8 463.5z" fill="#5333ff" data-fill-palette-color="accent"></path><path d="M681.5 173.5C681.5 173.5 681.5 173.5 681.5 173.5 681.5 173.5 681.5 173.5 681.5 173.5L681.5 173.5z" fill="#5333ff" data-fill-palette-color="accent"></path><path d="M806.4 291.6c-15.7-29.3-32.1-58.3-48.7-87.2 5.7-8.5 9.1-18.7 9.1-29.7 0-29.3-23.8-53.1-53.1-53.1-29.3 0-53.1 23.8-53.1 53.1 0 28.7 23 52.2 51.5 53.1 11.8 21 23.3 41.4 34.5 61.9 3.1 5.6 6.6 14.2 4.4 18.9-7.1 15.4-16.8 29.6-27.4 47.4-5.6-10-9-16-12.4-21.9-27.4-48.6-54.6-97.3-82.4-145.8-3.5-6.2-9.3-14.7-14.8-15.4-16.2-2-32.8-0.6-52.9-0.5 5.2 9.2 8.5 15 11.8 20.9 33.6 59.6 65.7 120 101.3 178.3 15.7 25.8 19.4 46.7-0.7 70.7-4.7 5.7-7.5 17.1-5.1 23.7 5.1 14 14.1 26.6 21.5 39.7 2.9-1.4 4.6-1.7 5.1-2.7 37.8-63.5 75.7-126.9 112.7-190.8C810.8 307.3 809.5 297.3 806.4 291.6zM744.9 183c-3.6 13.8-16.2 24-31.2 24-5.6 0-11-1.5-15.6-4-9.9-5.5-16.6-16.1-16.6-28.2 0-0.4 0-0.8 0-1.2 0 0 0 0 0 0h0c0.7-17.2 14.9-31 32.2-31 17.8 0 32.2 14.5 32.2 32.2C746 177.6 745.6 180.3 744.9 183z" fill="#5333ff" data-fill-palette-color="accent"></path></g></svg></g></svg></g></svg></g></svg></g></svg></g></svg></g><defs></defs></svg><rect width="95.481" height="87.62865673909452" fill="none" stroke="none" visibility="hidden"></rect></g></svg></g></svg>